<svg xmlns:xlink="http://www.w3.org/1999/xlink" width="50" height="44" viewBox="0 0 50 44" fill="none" xmlns="http://www.w3.org/2000/svg">
  <path fill-rule="evenodd" clip-rule="evenodd" d="M9.34449 2.14477H40.6555C42.9856 2.14477 44.8745 4.03367 44.8745 6.36374V14.3833C44.8745 14.7684 45.1867 15.0806 45.5718 15.0806C45.957 15.0806 46.2692 14.7684 46.2692 14.3833V6.36374C46.2692 3.26339 43.7558 0.75007 40.6555 0.75007H9.34449C6.24414 0.75007 3.73082 3.26339 3.73082 6.36374C3.73082 6.63333 3.94937 6.85188 4.21896 6.85188H4.63737C4.90697 6.85188 5.12552 6.63333 5.12552 6.36374C5.12552 4.03367 7.01441 2.14477 9.34449 2.14477ZM44.8745 37.6748C44.8745 40.0048 42.9856 41.8937 40.6555 41.8937H9.34449C7.01441 41.8937 5.12552 40.0048 5.12552 37.6748V25.6106C5.12552 25.2255 4.8133 24.9132 4.42817 24.9132C4.04303 24.9132 3.73082 25.2255 3.73082 25.6106V37.6748C3.73082 40.7751 6.24414 43.2884 9.34449 43.2884H40.6555C43.7558 43.2884 46.2692 40.7751 46.2692 37.6748C46.2692 37.4052 46.0506 37.1866 45.781 37.1866H45.3626C45.093 37.1866 44.8745 37.4052 44.8745 37.6748ZM14.0162 19.7012C14.0162 20.2697 13.5551 20.7305 12.9864 20.7305C12.4177 20.7305 11.9566 20.2697 11.9566 19.7012C11.9566 19.1327 12.4177 18.6719 12.9864 18.6719C13.5551 18.6719 14.0162 19.1327 14.0162 19.7012ZM1.89472 20.6047L1.89516 20.6049L1.89561 20.6051C2.47563 20.8422 3.09938 20.9603 3.76581 20.9603C4.70261 20.9603 5.48535 20.851 6.11049 20.6287C6.45376 20.5093 6.76785 20.3618 7.05236 20.1859C7.28883 20.0396 7.62281 20.167 7.66307 20.4421C7.68837 20.615 7.83663 20.7431 8.01133 20.7431H9.40584C9.69469 20.7431 9.92885 20.509 9.92885 20.2201V14.016C9.92885 12.6213 9.52299 11.5929 8.68937 10.9584C7.87911 10.3307 6.70482 10.0248 5.18236 10.0248C4.40714 10.0248 3.68193 10.0831 3.00698 10.2C2.33372 10.3167 1.75947 10.4704 1.28574 10.6621C1.24625 10.6781 1.22041 10.7164 1.22041 10.759V12.5177C1.22041 12.5894 1.29092 12.6399 1.35878 12.6167C2.40757 12.2589 3.53656 12.0795 4.7465 12.0795C5.51323 12.0795 6.08087 12.1447 6.45696 12.2696L6.45749 12.2698L6.45803 12.2699C6.84693 12.3945 7.09555 12.5898 7.22459 12.8469L7.22551 12.8488L7.22651 12.8506C7.37462 13.1189 7.45322 13.4901 7.45322 13.9726C7.45322 14.1667 7.29587 14.324 7.10177 14.324H4.24526C2.82368 14.324 1.74757 14.6303 1.03752 15.2625C0.344493 15.8779 0 16.6965 0 17.7073C0 18.4193 0.171459 19.0276 0.520112 19.526L0.520548 19.5266L0.520992 19.5272C0.866961 20.0068 1.32577 20.366 1.89472 20.6047ZM2.83127 16.5274L2.83156 16.5271C3.12321 16.2762 3.60131 16.1399 4.28884 16.1399H6.9302C7.21906 16.1399 7.45322 16.3741 7.45322 16.6629V17.6084C7.45322 17.7319 7.41069 17.8527 7.32532 17.942C7.02548 18.2557 6.65338 18.5151 6.20727 18.7194C5.70054 18.9436 5.09832 19.0576 4.39781 19.0576C3.73929 19.0576 3.24629 18.9431 2.90675 18.7266C2.58118 18.5189 2.41026 18.1737 2.41026 17.6639C2.41026 17.1325 2.55716 16.7615 2.83127 16.5274ZM16.6382 10.2419C16.3493 10.2419 16.1152 10.4761 16.1152 10.7649V20.2201C16.1152 20.509 16.3493 20.7431 16.6382 20.7431H18.1733C18.4621 20.7431 18.6963 20.509 18.6963 20.2201V13.3686C18.6963 13.2274 18.7521 13.0908 18.8593 12.9989C19.1586 12.7424 19.5106 12.5271 19.9162 12.3536C20.4263 12.1416 20.942 12.0361 21.4641 12.0361C22.3598 12.0361 22.9307 12.1964 23.2181 12.4832L23.219 12.484L23.2198 12.4848C23.522 12.7733 23.6879 13.2941 23.6879 14.0812V20.2201C23.6879 20.509 23.9221 20.7431 24.211 20.7431H25.7243C26.0131 20.7431 26.2473 20.509 26.2473 20.2201V13.9726C26.2473 12.6417 25.9398 11.6399 25.3035 10.9899C24.6662 10.3388 23.6609 10.0248 22.3128 10.0248C21.5179 10.0248 20.7866 10.157 20.1203 10.4229C19.7693 10.5582 19.4437 10.7111 19.1435 10.8816C18.8899 11.0258 18.5537 10.8726 18.5246 10.5823C18.5052 10.3891 18.3426 10.2419 18.1484 10.2419H16.6382ZM30.7045 20.6049L30.7041 20.6047C30.1359 20.366 29.6778 20.0067 29.3323 19.5272L29.3319 19.5265L29.3314 19.5259C28.9833 19.0275 28.8121 18.4193 28.8121 17.7073C28.8121 16.6965 29.1561 15.8779 29.8482 15.2624C30.5572 14.6303 31.6318 14.324 33.0513 14.324H35.9029C36.097 14.324 36.2543 14.1667 36.2543 13.9726C36.2543 13.4901 36.1758 13.1188 36.0279 12.8505L36.0269 12.8487L36.026 12.8469C35.8972 12.5897 35.6489 12.3944 35.2607 12.2699L35.2601 12.2697L35.2596 12.2696C34.8841 12.1447 34.3173 12.0795 33.5518 12.0795C32.3436 12.0795 31.2163 12.2589 30.1691 12.6167C30.1013 12.6399 30.0307 12.5895 30.0307 12.5177V10.759C30.0307 10.7165 30.0565 10.6781 30.096 10.6621C30.5691 10.4704 31.1425 10.3167 31.8148 10.2C32.4887 10.0831 33.2129 10.0248 33.987 10.0248C35.5073 10.0248 36.6799 10.3307 37.489 10.9585C38.3214 11.593 38.7266 12.6214 38.7266 14.016V20.2201C38.7266 20.509 38.4924 20.7431 38.2036 20.7431H36.8118C36.6373 20.7431 36.4891 20.6151 36.4639 20.4424C36.4237 20.1674 36.0898 20.0401 35.8535 20.1864C35.5697 20.3621 35.2563 20.5094 34.9139 20.6286C34.2896 20.851 33.508 20.9603 32.5725 20.9603C31.907 20.9603 31.2842 20.8422 30.705 20.6051L30.7045 20.6049ZM31.6398 16.5271L31.6395 16.5273C31.3658 16.7614 31.2191 17.1324 31.2191 17.6639C31.2191 18.1738 31.3898 18.519 31.7149 18.7266C32.0539 18.9431 32.5461 19.0576 33.2036 19.0576C33.903 19.0576 34.5043 18.9437 35.0102 18.7194C35.4557 18.5151 35.8273 18.2557 36.1267 17.942C36.2119 17.8527 36.2543 17.732 36.2543 17.6086V16.6629C36.2543 16.3741 36.0202 16.1399 35.7313 16.1399H33.0948C32.4083 16.1399 31.931 16.2762 31.6398 16.5271ZM16.6382 33.7616C16.3493 33.7616 16.1152 33.5275 16.1152 33.2386V23.7834C16.1152 23.4946 16.3493 23.2604 16.6382 23.2604H18.1486C18.3429 23.2604 18.5055 23.4076 18.5248 23.6008C18.5539 23.8911 18.8902 24.0443 19.1438 23.9002C19.444 23.7296 19.7697 23.5767 20.1207 23.4414C20.7871 23.1755 21.5185 23.0433 22.3135 23.0433C23.6618 23.0433 24.6672 23.3573 25.3046 24.0084C25.9409 24.6584 26.2485 25.6602 26.2485 26.9911V33.2386C26.2485 33.5275 26.0143 33.7616 25.7254 33.7616H24.2119C23.923 33.7616 23.6889 33.5275 23.6889 33.2386V27.0997C23.6889 26.3126 23.5229 25.7918 23.2207 25.5033L23.2198 25.5025L23.219 25.5017C22.9315 25.2149 22.3605 25.0546 21.4647 25.0546C20.9426 25.0546 20.4268 25.1601 19.9167 25.3721C19.5109 25.5456 19.1589 25.7609 18.8596 26.0174C18.7524 26.1093 18.6966 26.2459 18.6966 26.3871V33.2386C18.6966 33.5275 18.4624 33.7616 18.1735 33.7616H16.6382ZM30.7058 33.6232L30.7063 33.6234L30.7067 33.6236C31.286 33.8607 31.9089 33.9788 32.5745 33.9788C33.5101 33.9788 34.2918 33.8695 34.9161 33.6471C35.2586 33.5279 35.572 33.3805 35.8559 33.2048C36.0922 33.0586 36.4261 33.1859 36.4663 33.4608C36.4916 33.6336 36.6397 33.7616 36.8143 33.7616H38.2063C38.4951 33.7616 38.7293 33.5275 38.7293 33.2386V27.0345C38.7293 25.6399 38.324 24.6114 37.4914 23.9769C36.6822 23.3492 35.5095 23.0433 33.9891 23.0433C33.2149 23.0433 32.4907 23.1016 31.8166 23.2185C31.1443 23.3352 30.5708 23.4889 30.0977 23.6807C30.0582 23.6966 30.0324 23.735 30.0324 23.7775V25.5362C30.0324 25.608 30.1029 25.6584 30.1708 25.6352C31.2181 25.2774 32.3456 25.098 33.5538 25.098C34.3195 25.098 34.8863 25.1632 35.2619 25.2881L35.2624 25.2883L35.2629 25.2884C35.6513 25.413 35.8995 25.6082 36.0284 25.8654L36.0293 25.8672L36.0303 25.869C36.1782 26.1373 36.2567 26.5086 36.2567 26.9911C36.2567 27.1852 36.0994 27.3425 35.9053 27.3425H33.0533C31.6335 27.3425 30.5588 27.6488 29.8497 28.281C29.1576 28.8965 28.8136 29.7151 28.8136 30.7258C28.8136 31.4378 28.9848 32.046 29.333 32.5444L29.3335 32.545L29.3339 32.5457C29.6794 33.0253 30.1376 33.3845 30.7058 33.6232ZM31.6413 29.5459L31.6416 29.5456C31.9328 29.2947 32.4102 29.1584 33.0968 29.1584H35.7337C36.0226 29.1584 36.2567 29.3926 36.2567 29.6814V30.6271C36.2567 30.7505 36.2143 30.8712 36.1291 30.9605C35.8296 31.2742 35.458 31.5336 35.0125 31.7379C34.5065 31.9621 33.9051 32.0761 33.2056 32.0761C32.548 32.0761 32.0557 31.9616 31.7167 31.7451C31.3916 31.5375 31.2209 31.1923 31.2209 30.6824C31.2209 30.1509 31.3676 29.7799 31.6413 29.5459ZM43.5032 33.8257L43.5029 33.8256C42.8609 33.7237 42.3249 33.5995 41.8965 33.4521C41.8543 33.4376 41.826 33.3978 41.826 33.3532V31.3557C41.826 31.2824 41.8994 31.2318 41.9678 31.2579C42.4539 31.4434 42.9913 31.5865 43.5804 31.6868C44.1701 31.7873 44.7301 31.8373 45.2603 31.8373C46.0713 31.8373 46.6336 31.7644 46.9613 31.6282C47.118 31.5631 47.2301 31.4696 47.3041 31.3496C47.3786 31.2288 47.4192 31.0735 47.4192 30.8779C47.4192 30.6024 47.3223 30.3949 47.132 30.2431L47.1307 30.242L47.1293 30.2408C46.9407 30.0795 46.6429 29.9255 46.2274 29.7825L46.2269 29.7823L46.2264 29.7821C45.8217 29.638 45.3006 29.4647 44.6628 29.2622L44.6622 29.262L44.6615 29.2617C44.0483 29.0578 43.5135 28.8387 43.0579 28.6041L43.0567 28.6035L43.0556 28.6029C42.5928 28.3497 42.2309 28.0274 41.9736 27.6348C41.7126 27.2364 41.5866 26.7223 41.5866 26.101C41.5866 25.1314 41.9398 24.3749 42.651 23.8462C43.3606 23.3043 44.4843 23.0434 46.0003 23.0434C46.6003 23.0434 47.1717 23.0872 47.7146 23.175C48.2554 23.2625 48.7186 23.3723 49.1031 23.5051C49.1453 23.5197 49.1735 23.5594 49.1735 23.604V25.5798C49.1735 25.6535 49.0994 25.7041 49.0308 25.6772C48.6319 25.5208 48.1889 25.3995 47.7015 25.3137L47.7009 25.3136C47.2274 25.2277 46.7839 25.185 46.3703 25.185C45.6198 25.185 45.0603 25.25 44.6846 25.3748C44.5117 25.4347 44.3902 25.5213 44.3113 25.6303C44.2325 25.7392 44.1897 25.8793 44.1897 26.0575C44.1897 26.2428 44.2342 26.3953 44.3187 26.5201C44.4031 26.6448 44.5322 26.749 44.7131 26.8296C45.1163 26.9876 45.7585 27.2108 46.6411 27.4995C47.4571 27.7467 48.1107 28.0099 48.5987 28.2902C49.0897 28.5723 49.4467 28.9178 49.6612 29.3294C49.8902 29.7265 50.0005 30.2379 50.0005 30.8562C50.0005 31.8987 49.6176 32.6934 48.8451 33.2223L48.8446 33.2227L48.844 33.2231C48.0795 33.7316 46.982 33.9789 45.565 33.9789C44.8491 33.9789 44.1618 33.9279 43.5032 33.8257ZM48.8695 20.1119C49.0992 20.347 49.1016 20.7306 48.875 20.9687L47.7975 22.1003C47.6854 22.218 47.525 22.2764 47.3631 22.262C46.9337 22.224 46.5018 22.205 46.0675 22.205C45.4955 22.205 44.9462 22.2326 44.4272 22.2946C44.2587 22.3147 44.0894 22.2571 43.9724 22.1342L42.8812 20.988C42.6545 20.75 42.6569 20.3664 42.8866 20.1312L43.577 19.4242C43.8067 19.189 44.1766 19.1913 44.4032 19.4294L45.4901 20.5709C45.6962 20.7874 46.0415 20.7874 46.2476 20.5709L47.3529 19.41C47.5796 19.172 47.9494 19.1696 48.1791 19.4048L48.8695 20.1119Z" fill="url(#paint0_linear_4975_1442)"/>
  <defs>
    <linearGradient id="paint0_linear_4975_1442" x1="25.0003" y1="0.169103" x2="18.0498" y2="46.2308" gradientUnits="userSpaceOnUse">
      <stop offset="0.026102" stop-color="#DC8EFE"/>
      <stop offset="0.978906" stop-color="#FFD232"/>
    </linearGradient>
  </defs>
</svg>